<svg width="1440" height="620" viewBox="0 0 1440 620" fill="none" xmlns="http://www.w3.org/2000/svg">
<g clip-path="url(#clip0_760_13)">
<mask id="mask0_760_13" style="mask-type:luminance" maskUnits="userSpaceOnUse" x="0" y="0" width="1440" height="620">
<path d="M1440 0H0V620H1440V0Z" fill="white"/>
</mask>
<g mask="url(#mask0_760_13)">
<path d="M663.311 1220.95C871.533 1290 1101.84 1333.51 1277.15 1270.79C1446.54 1210.15 1488.48 1054.5 1528.98 911.156C1567.82 773.83 1599.53 626.797 1499.37 484.68C1397.01 339.495 1203.74 243.824 1008.75 173.12C803.058 98.5268 583.344 42.3455 392.98 83.4119C186.864 127.88 18.9062 238.096 -29.956 397.224C-78.3199 554.614 10.4119 736.574 143.682 894.906C268.019 1042.65 455.653 1152.1 663.311 1220.95Z" fill="#F6F7F9"/>
<path d="M725.772 1031.49C860.507 1076.15 1009.53 1104.31 1122.97 1063.74C1232.58 1024.49 1259.7 923.772 1285.91 831.021C1311.04 742.165 1331.56 647.02 1266.74 555.072C1200.52 461.126 1075.47 399.223 949.292 353.471C816.189 305.203 674.038 268.861 550.861 295.434C417.488 324.192 308.817 395.511 277.19 498.479C245.896 600.321 303.31 718.058 389.532 820.512C469.988 916.104 591.409 986.93 725.772 1031.49Z" fill="#F6F7F9"/>
<path d="M788.237 842.03C849.478 862.336 917.216 875.135 968.779 856.688C1018.6 838.853 1030.93 793.07 1042.85 750.913C1054.27 710.522 1063.59 667.277 1034.14 625.479C1004.03 582.778 947.189 554.638 889.837 533.842C829.338 511.906 764.719 495.382 708.729 507.46C648.108 520.538 598.708 552.954 584.336 599.757C570.113 646.049 596.209 699.564 635.404 746.134C671.975 789.586 727.164 821.779 788.237 842.03Z" fill="#F6F7F9"/>
</g>
</g>
<defs>
<clipPath id="clip0_760_13">
<rect width="1440" height="620" fill="white"/>
</clipPath>
</defs>
</svg>
