<svg xmlns="http://www.w3.org/2000/svg" width="60" height="47.091" viewBox="0 0 60 47.091">
  <path id="Path_1153" data-name="Path 1153" d="M56.1,17.537a6.3,6.3,0,0,0-5.3-1.625.46.46,0,0,0-.174.077c-1.5-.155-3.164-.156-4.9-.156a12.237,12.237,0,0,1-7.971-2.8,16.054,16.054,0,0,0-2.228-1.406,6.65,6.65,0,0,0,3.923-6.012A6.593,6.593,0,0,0,36.391.074.468.468,0,0,0,35.81.8a4.246,4.246,0,0,1,1.3,3.053A4.434,4.434,0,0,1,32.6,8.2a4.55,4.55,0,0,1-3.5-1.644,12.6,12.6,0,0,0-9.377-3.817,12.606,12.606,0,0,0-9.387,3.827A4.536,4.536,0,0,1,6.856,8.2,4.435,4.435,0,0,1,2.349,3.856,4.246,4.246,0,0,1,3.648.8.469.469,0,0,0,3.066.074,6.593,6.593,0,0,0,0,5.617,6.764,6.764,0,0,0,6.856,12.27a9.768,9.768,0,0,0,1.307-.09,16.423,16.423,0,0,0-2.01,1.215.468.468,0,0,0-.1.66c.079.106,1.974,2.6,4.407,2.6a6.631,6.631,0,0,0,2.055-.322h.136a34.633,34.633,0,0,0,2.271,5.617,5.107,5.107,0,0,0-.614,2.427,5.252,5.252,0,0,0,2.975,4.693c.351,2.413,1.126,4.194,2.259,5.187a.462.462,0,0,0,0,.218c.566,2.409.936,4.578.977,4.823l.3,4.7c-.776.882-1.038,1.634-.776,2.235a1.787,1.787,0,0,0,1.771.861,8.01,8.01,0,0,0,1.882-.132,2.842,2.842,0,0,0,.9.132c1.28,0,2.206,0,2.8-.646a3.215,3.215,0,0,0,.495-2.521l.371-5.618c.1-.281.535-1.483,1.039-2.874,1.1.09,4.511.356,7.044.421l.157,0a19.156,19.156,0,0,0,4.683-.913c1.217-.332,2.515-.688,3.888-.946a15.556,15.556,0,0,1,1.048,5.222.477.477,0,0,0,0,.055l.3,4.723c-.776.882-1.038,1.634-.776,2.235a1.787,1.787,0,0,0,1.771.861c1.28,0,2.205,0,2.8-.646a1.637,1.637,0,0,0,.147-.188,1.8,1.8,0,0,0,1.756.835c1.28,0,2.205,0,2.8-.646a3.214,3.214,0,0,0,.495-2.521l.266-4.026a7.028,7.028,0,0,0,1.807,2.8.469.469,0,0,0,.651-.04A8.178,8.178,0,0,0,60,37.48a6.044,6.044,0,0,0-.892-2.672c1.072-8.65.06-14.46-3.007-17.271m2.191,16.154a1.018,1.018,0,0,0-.59-.2h-.037c.018-.349.039-.68.06-1a25.761,25.761,0,0,0-.479-7.5c.076-1.189.122-2.308.122-3.282a.455.455,0,0,0,0-.064,9.167,9.167,0,0,0-.193-.994c1.122,2.416,1.83,6.417,1.12,13.04m-1.5-1.26c-.034.517-.069,1.052-.089,1.663a2.988,2.988,0,0,0-.343.6c-.043.074-.087.151-.132.232.2-1.532.43-3.444.633-5.424a24.819,24.819,0,0,1-.069,2.929M12.29,15.418a5.689,5.689,0,0,1-1.829.3,5.1,5.1,0,0,1-3.337-1.847c.871-.568,2.924-1.786,4.5-1.786h.137c.016.208.039.425.069.651.007.049.013.1.02.147.015.1.029.2.046.306q.034.209.075.428c.016.084.034.169.051.254.021.1.042.207.065.312.018.084.036.168.056.254.038.167.078.336.122.509.021.084.044.17.066.255.017.066.034.132.052.2a.455.455,0,0,0-.093.021m-1.036-4.255c.178-.1.345-.214.507-.328q-.014.153-.021.31h-.115c-.122,0-.246.007-.371.018M12.216,9.1c-.957,1.357-3.057,2.233-5.359,2.233A5.826,5.826,0,0,1,.937,5.617a5.538,5.538,0,0,1,.5-2.306,5.245,5.245,0,0,0-.028.544A5.373,5.373,0,0,0,6.856,9.14a5.462,5.462,0,0,0,4.2-1.959,11.658,11.658,0,0,1,8.677-3.5A11.647,11.647,0,0,1,28.4,7.171,5.477,5.477,0,0,0,32.6,9.14a5.372,5.372,0,0,0,5.444-5.285,5.24,5.24,0,0,0-.029-.547,5.542,5.542,0,0,1,.5,2.309A5.827,5.827,0,0,1,32.6,11.333,6.266,6.266,0,0,1,27.442,9c-.008-.011-.017-.02-.026-.03-1.128-2.1-3.828-3.3-7.687-3.3-3.877,0-6.491,1.225-7.513,3.434m15.894,2.045H28q-.007-.152-.023-.3c.152.111.308.217.471.316-.113-.009-.226-.015-.337-.015m4.5,2.724a5.081,5.081,0,0,1-3.336,1.846,5.7,5.7,0,0,1-1.83-.3.468.468,0,0,0-.125-.024c.018-.064.034-.126.052-.19.022-.08.045-.16.066-.239q.075-.279.139-.549c.014-.058.027-.115.04-.172q.052-.221.1-.435c.011-.053.023-.106.033-.158q.051-.255.092-.5c.012-.07.022-.138.033-.206.016-.1.03-.2.042-.294.016-.119.029-.235.041-.349.007-.075.016-.15.022-.223h.134c1.577,0,3.631,1.219,4.5,1.787m-19.722-.451c-.01-.054-.018-.105-.027-.159-.02-.112-.04-.225-.057-.334a10.469,10.469,0,0,1-.128-1.325s0-.006,0-.01c0-.05-.005-.105-.005-.154,0-4.205,4.423-4.833,7.06-4.833,2.207,0,7.34.471,7.34,4.833,0,.064,0,.136-.007.2,0,.115-.01.234-.019.358,0,.021,0,.042-.006.063-.01.122-.023.247-.039.376-.007.058-.017.119-.025.179-.013.1-.026.19-.042.288a30.568,30.568,0,0,1-2.917,8.249c-.026-.033-.055-.064-.082-.1l-.042-.05q-.068-.079-.139-.155l-.037-.039c-.051-.053-.1-.106-.154-.157l0,0a5.4,5.4,0,0,0-.52-.442l-.086-.064-.12-.083c-.041-.028-.082-.055-.123-.081l-.1-.064c-.052-.032-.1-.062-.157-.092l-.082-.046q-.1-.057-.213-.109l-.036-.018a5.453,5.453,0,0,0-.841-.32l-.025-.007q-.128-.037-.259-.067l-.051-.011q-.118-.026-.237-.047l-.068-.012c-.075-.012-.149-.023-.225-.032l-.078-.01c-.075-.008-.149-.014-.225-.019l-.077-.006c-.1-.005-.2-.008-.3-.008s-.2,0-.3.008l-.046,0c-.087.005-.174.012-.26.022l-.019,0a5.461,5.461,0,0,0-3.584,1.912,32.246,32.246,0,0,1-2.635-7.643m2.359,10.957a4.179,4.179,0,0,1,.639-2.213,4.234,4.234,0,0,1,.273-.391l.04-.052q.079-.1.164-.191l.046-.049a4.449,4.449,0,0,1,.6-.533l.027-.02a4.571,4.571,0,0,1,.706-.422l.042-.019a4.559,4.559,0,0,1,.451-.182l.069-.025c.07-.023.141-.043.212-.063s.121-.031.182-.045.132-.03.2-.043c.1-.019.211-.035.318-.047l.12-.012c.131-.011.263-.019.4-.019s.27.008.4.02l.109.011c.121.013.24.03.358.053l.072.015c.111.023.219.051.327.081l.124.038c.1.032.2.067.3.107l.067.026c.112.046.22.1.327.152l.093.049c.1.056.2.114.3.177l.024.015c.111.072.217.15.321.231l.046.037c.1.079.192.161.283.248l.013.012c.1.094.19.193.278.295l.024.029c.077.091.15.186.22.283l.036.05a4.191,4.191,0,0,1,.754,2.4,4.486,4.486,0,0,1-8.965,0m7.542,21.764c-.287.015-.613.015-.978.015-.54,0-.847-.15-.911-.3-.079-.182.067-.651.74-1.374a.469.469,0,0,0,.125-.349l-.312-4.92a.456.456,0,0,0-.005-.047c0-.021-.324-1.949-.842-4.247a3.811,3.811,0,0,0,1.454.276,4.811,4.811,0,0,0,.679-.055,34.521,34.521,0,0,1,.556,4.132l.3,4.723c-.738.839-1.005,1.558-.8,2.144m26.973-2.254a.439.439,0,0,0,0,.084c.084.965,0,1.568-.249,1.843-.314.342-1.066.342-2.107.342-.54,0-.847-.15-.911-.3-.079-.182.067-.651.74-1.374a.469.469,0,0,0,.125-.349l-.31-4.9A16.135,16.135,0,0,0,46,33.837a18.787,18.787,0,0,1,3.095-.214,9.752,9.752,0,0,1,1.348,2.891Zm.965.6c0-.176-.011-.359-.028-.558l.242-2.618.171,2.683a5.4,5.4,0,0,0-.385.493m4.117-6.349c0,.013,0,.025,0,.038L54.46,43.9a.564.564,0,0,0,0,.072,2.618,2.618,0,0,1-.249,1.843c-.314.342-1.066.342-2.107.342-.54,0-.847-.15-.912-.3-.079-.182.067-.651.74-1.374a.468.468,0,0,0,.125-.349l-.311-4.891a10.533,10.533,0,0,0-3.76-8.218.468.468,0,1,0-.6.716,9.63,9.63,0,0,1,.976.949,30.6,30.6,0,0,0-7.433,1.349,17.586,17.586,0,0,1-4.57.878c-2.339-.06-5.441-.294-6.737-.4.2-.538.392-1.081.578-1.59a.468.468,0,1,0-.88-.321c-.859,2.36-1.971,5.442-1.971,5.442a.461.461,0,0,0-.027.128l-.378,5.72a.523.523,0,0,0,0,.072,2.618,2.618,0,0,1-.249,1.843c-.314.342-1.066.342-2.107.342-.54,0-.847-.15-.911-.3-.079-.182.067-.651.74-1.374a.469.469,0,0,0,.125-.349l-.312-4.917a32.034,32.034,0,0,0-1.6-8.042.469.469,0,1,0-.88.323,22.491,22.491,0,0,1,.792,2.725,2.887,2.887,0,0,1-2.172-.5c-.994-.727-1.705-2.2-2.076-4.273a5.56,5.56,0,0,0,1.435.189,5.348,5.348,0,0,0,5.42-5.261,5.1,5.1,0,0,0-.556-2.318,34.263,34.263,0,0,0,2.441-5.726h.184a6.641,6.641,0,0,0,2.056.322c2.431,0,4.325-2.491,4.4-2.6a.468.468,0,0,0-.1-.66,16.359,16.359,0,0,0-1.939-1.179,8.743,8.743,0,0,0,.961.054,7.042,7.042,0,0,0,1.554-.175,10.212,10.212,0,0,1,3.064,1.7,13.037,13.037,0,0,0,8.514,2.972c6.381,0,10.028.231,10.7,4.971-.006,5.655-1.574,16.29-1.59,16.4m2.892,3.493a6.368,6.368,0,0,1-1.549-4.153,9.32,9.32,0,0,1,1.358-2.932c.064-.071.122-.114.158-.115,0,0,.2.047.5.678,0,0,.005.007.007.011a.451.451,0,0,0,.022.044,5.5,5.5,0,0,1,.835,2.315,7.409,7.409,0,0,1-1.328,4.153" transform="translate(0 0)" fill="#17355d"/>
</svg>
