<svg xmlns="http://www.w3.org/2000/svg" width="60" height="48.664" viewBox="0 0 60 48.664">
  <path id="Ico_Sheep" d="M3.955,14.688a7.426,7.426,0,0,0,1,.07A5.308,5.308,0,0,0,7.826,14,21.143,21.143,0,0,0,9.889,19.14a28.074,28.074,0,0,1,1.5,3.3.926.926,0,0,1-.021.151,1.755,1.755,0,0,0-.038.328c0,3.473,1.655,5.614,4.45,5.822.077,1.529.6,2.462,2.554,2.471a3.2,3.2,0,0,0-.132.91,3.54,3.54,0,0,0,2.65,3.367.466.466,0,0,0-.028.238,31.482,31.482,0,0,1,.238,5.073c0,.016,0,.033,0,.049l.3,4.719c-.776.882-1.037,1.632-.775,2.233a1.786,1.786,0,0,0,1.769.86,8.008,8.008,0,0,0,1.881-.131,2.839,2.839,0,0,0,.895.131c1.279,0,2.2,0,2.8-.646a3.2,3.2,0,0,0,.495-2.512l.629-6.494a.468.468,0,0,0-.1-.33c.1-.074.2-.151.287-.234a3.65,3.65,0,0,0,3.45,2.328,3.691,3.691,0,0,0,3.042-1.56,3.743,3.743,0,0,0,6.181-.147,3.75,3.75,0,0,0,5.521-.184,3.652,3.652,0,0,0,.553.475l.617,6.217c-.771.878-1.03,1.627-.769,2.226a1.786,1.786,0,0,0,1.769.86c1.28,0,2.2,0,2.8-.646a1.591,1.591,0,0,0,.147-.188,1.8,1.8,0,0,0,1.755.834c1.279,0,2.2,0,2.8-.646A3.209,3.209,0,0,0,57.6,45.5l.7-8.988a27.988,27.988,0,0,0-.081-3.075c.008-.1.015-.195.015-.294a3.293,3.293,0,0,0-.455-1.671,3.436,3.436,0,0,0,.012-6.429,3.465,3.465,0,0,0,1.584-2.873,3.6,3.6,0,0,0-3.674-3.509q-.078,0-.155,0a3.342,3.342,0,0,0,.312-1.411,3.6,3.6,0,0,0-3.675-3.509,9.7,9.7,0,0,0-2.278.271,4.007,4.007,0,0,0-6.738-1.684,3.865,3.865,0,0,0-3.294-1.468c-1.756,0-2.9.485-3.406,1.445a3.768,3.768,0,0,0-4.048-1.061.459.459,0,0,0-.064-.147.468.468,0,0,0-.354-.2,12.47,12.47,0,0,1-2.572-.5,2.858,2.858,0,0,0-2.022-2A2.629,2.629,0,0,0,27.7,7.18a2.9,2.9,0,0,0-2.986-2.8,3.089,3.089,0,0,0-.5.041,2.566,2.566,0,0,0,.042-.464,2.9,2.9,0,0,0-2.986-2.8,3.915,3.915,0,0,0-2.2.782A3.052,3.052,0,0,0,13.412,1.9a3.586,3.586,0,0,0-2.1-.754,2.9,2.9,0,0,0-2.986,2.8,2.587,2.587,0,0,0,.042.464,3.085,3.085,0,0,0-.5-.041,2.9,2.9,0,0,0-2.986,2.8,2.63,2.63,0,0,0,.306,1.228,2.881,2.881,0,0,0-2.01,1.948A12.8,12.8,0,0,1,.436,10.9a.468.468,0,0,0-.415.6,4.817,4.817,0,0,0,3.934,3.179M16.238,27.83c-3.583,0-3.97-3.432-3.97-4.907a1.014,1.014,0,0,1,.022-.157,1.16,1.16,0,0,0-.012-.616,28.937,28.937,0,0,0-1.554-3.432c-1.049-2.076-2.134-4.223-2.134-6.332a9.151,9.151,0,0,1,.4-2.745c.033.035.07.066.1.1s.072.072.111.1.084.066.126.1.076.062.117.09.093.058.14.087.079.052.121.075.1.05.153.075.081.042.123.06.111.041.167.061.081.032.123.045c.061.019.123.032.184.048.039.009.077.022.117.03.07.014.142.023.213.032.033,0,.064.011.1.015q.158.016.319.016a3.036,3.036,0,0,0,2.518-1.3,3.09,3.09,0,0,0,5.035,0,3.037,3.037,0,0,0,2.518,1.3,3.1,3.1,0,0,0,.321-.017c.035,0,.07-.011.1-.016.07-.01.141-.019.21-.033.041-.008.081-.021.122-.031.062-.015.124-.03.184-.049.043-.014.084-.031.126-.046s.114-.04.169-.064.083-.04.124-.06.105-.05.156-.079.08-.048.12-.073.1-.06.144-.093.075-.057.113-.085.09-.069.133-.107.069-.064.1-.1.058-.052.085-.079l.029.1q.066.218.119.444c.011.047.024.093.034.14q.064.289.108.59c.007.05.013.1.02.151.021.161.039.324.052.489,0,.06.01.121.014.181.013.213.022.429.022.649,0,.115-.005.231-.011.346s-.018.246-.033.385c0,.007,0,.013,0,.019a17.912,17.912,0,0,1-2.308,5.986,31.677,31.677,0,0,0-1.563,3.257.846.846,0,0,0-.024.488c0,.02.008.04.01.057,0,3.256-1.25,4.907-3.716,4.907m7.1,19.884c-.286.015-.613.015-.978.015-.54,0-.846-.15-.911-.3-.079-.182.067-.651.739-1.373a.469.469,0,0,0,.125-.349L22,40.818a31.862,31.862,0,0,0-.243-5.189c.04,0,.079.006.119.006a3.734,3.734,0,0,0,1.212-.2,3.224,3.224,0,0,0-.035.476,3.414,3.414,0,0,0,1.03,2.43.467.467,0,0,0-.251.435l.31,6.793c-.741.84-1.008,1.56-.807,2.146m4.152-2.254a.439.439,0,0,0,0,.086,2.616,2.616,0,0,1-.249,1.841c-.313.342-1.065.342-2.1.342-.539,0-.846-.15-.911-.3-.08-.182.066-.651.739-1.373a.469.469,0,0,0,.125-.34l-.313-6.842a3.772,3.772,0,0,0,3.324.282Zm24.474,0a.439.439,0,0,0,0,.084,2.616,2.616,0,0,1-.249,1.841c-.313.342-1.065.342-2.1.342-.539,0-.846-.15-.911-.3-.079-.182.067-.651.739-1.373a.468.468,0,0,0,.123-.365l-.58-5.842a3.807,3.807,0,0,0,1.161.181,3.757,3.757,0,0,0,2.4-.862Zm.964.6c0-.176-.011-.359-.028-.558l.243-2.616.17,2.681a5.455,5.455,0,0,0-.385.493m4.43-9.608-.7,9.013a.471.471,0,0,0,0,.077,2.617,2.617,0,0,1-.249,1.841c-.313.342-1.065.342-2.1.342-.54,0-.846-.15-.911-.3-.079-.182.067-.651.739-1.373a.467.467,0,0,0,.125-.349l-.31-4.883a9.637,9.637,0,0,0-.333-3.164,3.344,3.344,0,0,0,.2-1.079,3.817,3.817,0,0,0,.735.071A3.739,3.739,0,0,0,57.363,35.4c.011.671-.006,1.056-.006,1.056M36.308,13.5a.468.468,0,0,0,.813-.235c.1-.627.5-1.461,2.743-1.461,1.409,0,2.832.648,2.832,2.1a.468.468,0,0,0,.936,0c0-1.226.89-1.848,2.644-1.848a2.662,2.662,0,0,1,2.738,2.572.468.468,0,0,0,.629.44,8.136,8.136,0,0,1,2.53-.38,2.662,2.662,0,0,1,2.738,2.572,2.479,2.479,0,0,1-.76,1.77.468.468,0,0,0,.5.77,2.872,2.872,0,0,1,1.041-.2,2.662,2.662,0,0,1,2.738,2.572,2.59,2.59,0,0,1-1.8,2.4.468.468,0,0,0-.315.442v.238a.468.468,0,0,0,.4.464,2.539,2.539,0,0,1,.2,5.041.468.468,0,0,0-.258.766,2.446,2.446,0,0,1,.629,1.619,2.662,2.662,0,0,1-2.738,2.572,2.868,2.868,0,0,1-1.089-.213.468.468,0,0,0-.636.527,2.431,2.431,0,0,1,.053.492A2.662,2.662,0,0,1,50.141,39.1a2.755,2.755,0,0,1-2.334-1.247.468.468,0,0,0-.8.025,2.8,2.8,0,0,1-4.784.07.468.468,0,0,0-.845.093,2.772,2.772,0,0,1-5.2,0,.468.468,0,0,0-.888,0,2.707,2.707,0,0,1-2.6,1.8,2.656,2.656,0,0,1-2.723-2.459.468.468,0,0,0-.869-.219,2.773,2.773,0,0,1-2.376,1.319A2.661,2.661,0,0,1,23.99,35.91a2.415,2.415,0,0,1,.353-1.237.468.468,0,0,0-.7-.6,2.8,2.8,0,0,1-1.769.627,2.661,2.661,0,0,1-2.737-2.572,2.417,2.417,0,0,1,.347-1.226.468.468,0,0,0-.5-.693,2.888,2.888,0,0,1-.621.073c-1.21,0-1.582-.3-1.645-1.535,2.7-.214,4.173-2.261,4.173-5.822a1.21,1.21,0,0,0-.026-.228l0-.026a31.731,31.731,0,0,1,1.5-3.112,21.5,21.5,0,0,0,2.288-5.534,5.336,5.336,0,0,0,2.823.735h0a7.424,7.424,0,0,0,1-.07,4.739,4.739,0,0,0,3.408-2.122c1.163-.728,2.594-1.144,4.427.935m-5.037-1.73c-.031.055-.066.115-.1.175a.51.51,0,0,0-.044.07,3.834,3.834,0,0,1-2.776,1.744,6.507,6.507,0,0,1-.875.062,4.073,4.073,0,0,1-2.677-.838c.007-.083.011-.165.016-.248.006-.121.011-.237.011-.35,0-.173-.005-.344-.012-.514q0-.069-.007-.137c-.009-.146-.019-.29-.033-.433,0-.025,0-.051-.007-.076-.017-.161-.038-.32-.062-.477-.007-.046-.015-.092-.022-.138-.021-.124-.044-.247-.069-.369-.008-.039-.015-.078-.024-.117q-.049-.223-.108-.441c-.012-.044-.025-.087-.038-.13s-.031-.114-.049-.17a24.175,24.175,0,0,0,6.881,2.385M6.029,9.226a.468.468,0,0,0,.328-.8A1.775,1.775,0,0,1,5.822,7.18a1.968,1.968,0,0,1,2.05-1.869A2.186,2.186,0,0,1,8.959,5.6a.468.468,0,0,0,.62-.67,1.742,1.742,0,0,1-.313-.983,1.967,1.967,0,0,1,2.049-1.869,3.113,3.113,0,0,1,2.049,1.026.468.468,0,0,0,.825-.3A1.967,1.967,0,0,1,16.238.937a1.967,1.967,0,0,1,2.049,1.869.469.469,0,0,0,.808.323,3.541,3.541,0,0,1,2.179-1.045,1.968,1.968,0,0,1,2.05,1.869,1.741,1.741,0,0,1-.313.983.468.468,0,0,0,.62.67,2.186,2.186,0,0,1,1.088-.293A1.967,1.967,0,0,1,26.768,7.18a1.776,1.776,0,0,1-.535,1.248.468.468,0,0,0,.328.8,2.108,2.108,0,0,1,1.63.78l0,0c-.132-.048-.263-.1-.393-.145L27.648,9.8l-.247-.1-.159-.063L27,9.545l-.133-.055c-.113-.047-.224-.094-.332-.141l-.162-.071L26.185,9.2l-.16-.072-.179-.082L25.7,8.975l-.277-.13-.131-.063-.16-.077-.123-.06-.159-.079-.094-.047-.22-.112-.067-.035-.148-.077-.061-.032-.138-.073-.031-.016c-.226-.121-.355-.194-.361-.2a.454.454,0,0,0-.112-.045c-.01,0-.02,0-.029,0a.5.5,0,0,0-.089-.011h0c-.01,0-.02,0-.03,0l-.025,0-.026,0c-.013,0-.027,0-.04,0s-.028.011-.042.016a.466.466,0,0,0-.051.019l-.005,0-.015.006a.477.477,0,0,0-.054.037l-.007.005a.462.462,0,0,0-.062.059l0,0a.524.524,0,0,0-.05.07v0h0a.466.466,0,0,0-.062.255s0,.007,0,.01,0,.013,0,.02a.461.461,0,0,0,.044.154.177.177,0,0,1,.009.037.36.36,0,0,1,.006.088.422.422,0,0,0-.041.03.443.443,0,0,0-.1.091,2.117,2.117,0,0,1-1.675.8,1.968,1.968,0,0,1-2.05-1.869.468.468,0,1,0-.936,0,1.967,1.967,0,0,1-2.049,1.869,1.968,1.968,0,0,1-2.05-1.869.468.468,0,0,0-.936,0A1.968,1.968,0,0,1,11.2,9.639a2.1,2.1,0,0,1-1.648-.77.459.459,0,0,0-.092-.087.436.436,0,0,0-.048-.026.461.461,0,0,0-.058-.031.418.418,0,0,1,0-.091s0-.009,0-.014a.116.116,0,0,1,0-.027A.462.462,0,0,0,9.4,8.418a.481.481,0,0,0-.172-.394A.467.467,0,0,0,8.7,7.976h0l-.016.009,0,0L8.664,8A32.366,32.366,0,0,1,4.459,9.924a2.11,2.11,0,0,1,1.571-.7m2.01.159a10.078,10.078,0,0,0-.431,3c0,.187.009.384.027.6a4.071,4.071,0,0,1-2.678.839,6.514,6.514,0,0,1-.876-.062,3.853,3.853,0,0,1-2.923-1.99A24.18,24.18,0,0,0,8.039,9.385" transform="translate(0 -0.001)" fill="#17355d"/>
</svg>
