<svg xmlns="http://www.w3.org/2000/svg" width="60" height="51.13" viewBox="0 0 60 51.13">
  <path id="Path_1152" data-name="Path 1152" d="M4.71,16.4a7,7,0,0,0,1.717-.212,35.216,35.216,0,0,0,3.007,8.271,5.347,5.347,0,0,0-.648,2.552,5.546,5.546,0,0,0,4.055,5.281c.322,2.194,1.1,4.946,2.994,6.261.078.054.157.1.237.152.54,2.329.892,4.388.932,4.626l.3,4.7c-.777.883-1.038,1.634-.776,2.236a1.788,1.788,0,0,0,1.771.862A8.013,8.013,0,0,0,20.18,51a2.842,2.842,0,0,0,.9.132c1.281,0,2.206,0,2.8-.647a3.215,3.215,0,0,0,.495-2.522l.371-5.621c.1-.282.538-1.491,1.044-2.888,1.544.072,7.871.366,10.54.434l.158,0a19.163,19.163,0,0,0,4.685-.913c1.152-.315,2.377-.649,3.668-.9h0l.219-.043A15.554,15.554,0,0,1,46.1,43.253a.48.48,0,0,0,0,.055l.3,4.724c-.777.883-1.038,1.634-.776,2.236a1.788,1.788,0,0,0,1.771.862c1.281,0,2.206,0,2.8-.647a1.635,1.635,0,0,0,.147-.188,1.805,1.805,0,0,0,1.757.835c1.281,0,2.206,0,2.8-.647a3.215,3.215,0,0,0,.495-2.522l.266-4.027a7.032,7.032,0,0,0,1.807,2.806.469.469,0,0,0,.652-.04A8.182,8.182,0,0,0,60,41.515a6.047,6.047,0,0,0-.892-2.673c1.072-8.653.06-14.466-3.008-17.278a6.328,6.328,0,0,0-5.211-1.642,34.107,34.107,0,0,0-5.182-.062,60.556,60.556,0,0,1-21.473-3.05c-.557-.171-1.057-.324-1.5-.449.014-.061.026-.119.04-.179a6.989,6.989,0,0,0,1.731.217c2.548,0,4.534-2.612,4.617-2.723a.469.469,0,0,0-.1-.66c-.129-.094-3.125-2.254-5.563-2.359A6.924,6.924,0,0,0,22.481.083a.469.469,0,0,0-.659.643A5.2,5.2,0,0,1,19.684,8.3a12.8,12.8,0,0,0-5.22-.953,12.693,12.693,0,0,0-5.176.994A5.207,5.207,0,0,1,7.062.726.469.469,0,0,0,6.4.083a6.924,6.924,0,0,0-.958,10.6A13.556,13.556,0,0,0,.193,13.016a.469.469,0,0,0-.1.66C.177,13.788,2.163,16.4,4.71,16.4m2.552-.81a.485.485,0,0,0-.009-.09c-.076-.38-.132-.732-.173-1.062A9.046,9.046,0,0,1,7.011,13.4a5.675,5.675,0,0,1,.049-.754c0-.02,0-.04.008-.06,0-.035.013-.068.018-.1a4.2,4.2,0,0,1,.375-1.152.466.466,0,0,0,.041-.135,4.031,4.031,0,0,1,.47-.72c1.026.481,3.383,1.787,3.67,3.752a18.144,18.144,0,0,0,.5,2.292,4.2,4.2,0,0,1-.011,3.208,17.308,17.308,0,0,1-2.185,3.671,34.047,34.047,0,0,1-2.687-7.805M9.724,27.011a4.428,4.428,0,0,1,.749-2.458c.044-.066.089-.131.136-.194s.1-.127.146-.188.08-.1.122-.142.09-.1.136-.145q.115-.117.237-.227c.042-.037.083-.075.126-.111.06-.05.121-.1.183-.144l.1-.072a4.8,4.8,0,0,1,.416-.265l.036-.021c.077-.043.155-.082.234-.121l.09-.042c.133-.061.268-.116.407-.165.041-.014.081-.03.121-.043.069-.022.14-.043.21-.062s.14-.036.21-.052.126-.029.19-.041c.114-.021.23-.038.347-.051l.126-.012c.139-.012.278-.02.42-.02s.285.009.425.021l.118.012c.124.014.247.031.368.054l.1.021q.164.035.323.08l.147.045q.142.045.281.1l.145.059q.147.062.288.134l.129.068c.09.049.178.1.264.155.025.015.051.03.075.046.108.071.212.147.314.227l.083.068c.086.071.17.144.251.22l.053.049q.143.14.274.291c.018.02.035.042.052.063q.107.128.2.263c.018.025.036.049.054.075a4.434,4.434,0,0,1,.793,2.527,4.666,4.666,0,0,1-4.742,4.575,4.665,4.665,0,0,1-4.741-4.575m7.006-7.286a4.2,4.2,0,0,1-.011-3.208,18.144,18.144,0,0,0,.5-2.292c.307-2.1,2.995-3.455,3.87-3.843a4.155,4.155,0,0,1,.277.323l.013.019c.063.083.121.169.177.255.024.037.046.076.068.114.035.059.069.119.1.18s.048.1.071.146.044.091.063.138c.035.082.067.166.1.251.017.049.032.1.047.148s.032.106.046.16.026.1.038.149c.02.086.038.174.053.263.007.041.012.082.018.123.012.087.023.176.031.267,0,.037.006.073.009.11.008.12.013.241.013.367,0,.144-.005.3-.016.455a12.894,12.894,0,0,1-.225,1.611,33.22,33.22,0,0,1-2.937,8.091,17.655,17.655,0,0,1-2.305-3.828m2.546,30.454c-.286.015-.613.015-.979.015-.54,0-.847-.15-.912-.3-.079-.182.067-.652.74-1.375a.469.469,0,0,0,.125-.349l-.312-4.922c0-.016,0-.031-.005-.047s-.306-1.839-.8-4.05a4.279,4.279,0,0,0,1.082.137,5.192,5.192,0,0,0,.753-.059c.473,2.113.776,3.882.813,4.1l.3,4.7c-.739.84-1.005,1.559-.805,2.145M40.92,38.071a17.578,17.578,0,0,1-4.572.878c-1.973-.05-5.959-.224-8.515-.34.093-.845.538-3.706,2.354-4.5.891-.391,1.026-.278,1.428.059.53.444,1.328,1.116,3.713,1.027,3.6-.133,4.51-.471,4.782-.677a.78.78,0,0,1,.6-.045c.222.108.387.452.464.968a2.8,2.8,0,0,0,1.646,2.128c-.654.164-1.289.338-1.9.506m8.837,9.851a.439.439,0,0,0,0,.084,2.62,2.62,0,0,1-.249,1.843c-.314.342-1.066.342-2.108.342-.54,0-.847-.15-.912-.3-.079-.182.067-.652.74-1.375a.468.468,0,0,0,.125-.349l-.311-4.9a16.139,16.139,0,0,0-1.047-5.4,18.8,18.8,0,0,1,3.1-.214,9.755,9.755,0,0,1,1.349,2.892Zm.965.6c0-.176-.011-.359-.028-.558l.243-2.619.17,2.684a5.459,5.459,0,0,0-.385.493m7.012-2.856a6.371,6.371,0,0,1-1.55-4.154,9.32,9.32,0,0,1,1.358-2.933c.065-.071.122-.115.158-.116,0,0,.2.046.5.678,0,.007.008.013.012.02s.011.024.018.035a5.506,5.506,0,0,1,.835,2.316,7.413,7.413,0,0,1-1.329,4.154m.559-7.948a1.017,1.017,0,0,0-.619-.192h-.008c.018-.349.039-.681.06-1a25.766,25.766,0,0,0-.48-7.5c.076-1.189.122-2.31.122-3.284a.49.49,0,0,0,0-.064,9.352,9.352,0,0,0-.19-.988C58.3,27.1,59,31.1,58.292,37.722m-1.5-1.256c-.034.518-.069,1.052-.089,1.663a2.966,2.966,0,0,0-.343.6c-.043.074-.087.151-.132.232.2-1.532.43-3.446.633-5.425a24.831,24.831,0,0,1-.069,2.93m-6.5-15.641c3.651.313,5.658,1.574,6.136,4.947,0,1.639-.135,3.7-.323,5.8a4.192,4.192,0,0,1-1.783-.106c-.521-.122-.59-.247-.6-.261-.088-.2.346-.972.729-1.653.126-.224.262-.466.405-.728.4-.739.619-1.29.444-1.753s-.623-.627-1.193-.836a8.361,8.361,0,0,1-1.717-.809,2.578,2.578,0,0,0-2.275-.511c-.223.057-.315.081-.824-.706-.92-1.425.507-2.929,1-3.379M45.749,20.8l.327-.013a8.812,8.812,0,0,0-2.757,3.108,3.63,3.63,0,0,0-.065,2.582,4.02,4.02,0,0,1-.242,3.132,1.89,1.89,0,0,1-1.82,1.087,6.211,6.211,0,0,1-4.684-2.32c-.941-1.76-1.755-3.281-6.129-2.418a1.811,1.811,0,0,1-1.5-.353c-1.848-1.365-2.636-5.665-2.872-7.28A59.725,59.725,0,0,0,45.749,20.8m-21.789-3.09c.331.1.686.21,1.063.323.148,1.2.936,6.578,3.3,8.326a2.742,2.742,0,0,0,2.235.518c3.694-.728,4.231.276,5.121,1.94a7.036,7.036,0,0,0,5.4,2.817l.137,0A2.8,2.8,0,0,0,43.863,30a4.975,4.975,0,0,0,.3-3.75,2.751,2.751,0,0,1,.017-1.987c.7-1.636,3.062-3.181,3.6-3.519.446,0,.877,0,1.288.013a3.314,3.314,0,0,0-.561,3.958c.748,1.159,1.174,1.277,1.844,1.106.305-.078.651-.167,1.542.4a9.3,9.3,0,0,0,1.895.9,2.542,2.542,0,0,1,.638.284c.008.029.026.214-.389.975-.141.258-.276.5-.4.717-.653,1.16-1.047,1.86-.771,2.49a1.658,1.658,0,0,0,1.24.8,6.318,6.318,0,0,0,1.437.183,4.039,4.039,0,0,0,.469-.027c-.468,4.831-1.167,9.575-1.178,9.646,0,.013,0,.025,0,.038l-.379,5.722a.523.523,0,0,0,0,.072,2.619,2.619,0,0,1-.249,1.843c-.314.342-1.066.342-2.108.342-.54,0-.848-.15-.912-.3-.079-.182.067-.652.74-1.375a.468.468,0,0,0,.125-.349l-.311-4.893a10.536,10.536,0,0,0-3.761-8.221.469.469,0,1,0-.6.716,9.633,9.633,0,0,1,.977.95,21.768,21.768,0,0,0-3.619.414c-.357-.034-2.4-.294-2.633-1.837a2.036,2.036,0,0,0-.982-1.673,1.722,1.722,0,0,0-1.511.091.452.452,0,0,0-.071.049c-.1.051-.86.363-4.246.488-2.023.074-2.607-.415-3.077-.808-.594-.5-1.083-.78-2.407-.2-2.336,1.025-2.826,4.4-2.917,5.318l-.774-.036c.193-.531.387-1.067.57-1.569a.469.469,0,1,0-.881-.321c-.86,2.361-1.972,5.445-1.972,5.445a.461.461,0,0,0-.027.128l-.379,5.722a.564.564,0,0,0,0,.072,2.619,2.619,0,0,1-.249,1.843c-.314.342-1.066.342-2.108.342-.54,0-.848-.15-.912-.3-.079-.182.067-.652.74-1.375a.469.469,0,0,0,.125-.349l-.313-4.922a.392.392,0,0,0-.005-.047,64.887,64.887,0,0,0-2.307-9.49.469.469,0,1,0-.88.323,39.487,39.487,0,0,1,1.234,4.278,3.258,3.258,0,0,1-2.388-.53c-1.228-.854-2.123-2.723-2.55-5.3a5.9,5.9,0,0,0,.644.037,5.6,5.6,0,0,0,5.68-5.512,5.344,5.344,0,0,0-.589-2.441,35.613,35.613,0,0,0,2.95-7.3c.426.122.912.271,1.454.437m4.1-4.217a5.4,5.4,0,0,1-3.549,1.972,6.055,6.055,0,0,1-1.544-.2c0-.017,0-.032.007-.048.017-.1.031-.195.046-.291s.029-.2.042-.291.021-.168.03-.251c.012-.111.022-.218.03-.323.005-.063.011-.127.015-.188.01-.166.017-.327.017-.477s-.006-.283-.015-.422c0-.046-.007-.091-.011-.136q-.012-.138-.031-.274c-.007-.053-.014-.106-.023-.159-.014-.082-.03-.163-.047-.243-.026-.125-.057-.248-.091-.369-.007-.024-.013-.049-.021-.074-.013-.043-.023-.087-.036-.13h.407c1.682,0,3.871,1.309,4.774,1.9M23.618,3.585a6.137,6.137,0,0,0-.108-1.148,5.986,5.986,0,0,1-1.188,7.994,5.419,5.419,0,0,0-1.646-1.6,6.145,6.145,0,0,0,2.942-5.249m-9.153,4.7a12.394,12.394,0,0,1,4.97.926.475.475,0,0,0,.047.031,6.1,6.1,0,0,1,.82.47c-1.249.611-3.673,2.077-4.008,4.376a17.344,17.344,0,0,1-.479,2.181,5.052,5.052,0,0,0,.045,3.8A14.06,14.06,0,0,0,16.837,22a5.765,5.765,0,0,0-1.052-.354l-.034-.008q-.133-.03-.268-.054l-.06-.011q-.122-.02-.246-.035l-.076-.009c-.08-.009-.16-.015-.241-.021l-.078-.006c-.105-.006-.21-.009-.317-.009s-.21,0-.314.009l-.051,0c-.09.006-.18.013-.269.022l-.029,0a5.765,5.765,0,0,0-1.8.506,14.2,14.2,0,0,0,1-1.969,5.054,5.054,0,0,0,.046-3.8,17.261,17.261,0,0,1-.479-2.181c-.324-2.221-2.595-3.663-3.875-4.31,1.614-1.24,4.05-1.494,5.769-1.494M4.351,5.781A5.985,5.985,0,0,1,5.376,2.434a6.154,6.154,0,0,0,2.833,6.4,5.994,5.994,0,0,0-.77.585.465.465,0,0,0-.173.16,5.04,5.04,0,0,0-.7.851A5.992,5.992,0,0,1,4.351,5.781M5.936,11.59h.389a5.817,5.817,0,0,0-.209,1.062,6.261,6.261,0,0,0-.047.744,9.3,9.3,0,0,0,.067,1.034c.008.069.017.141.026.211s.015.117.024.177c.02.147.041.295.067.448a6.062,6.062,0,0,1-1.542.2A5.415,5.415,0,0,1,1.162,13.49c.9-.592,3.09-1.9,4.774-1.9" transform="translate(0 0)" fill="#17355d"/>
</svg>
